<?xml version="1.0" standalone="no"?>
<!DOCTYPE svg PUBLIC "-//W3C//DTD SVG 20010904//EN"
 "http://www.w3.org/TR/2001/REC-SVG-20010904/DTD/svg10.dtd">
<svg version="1.0" xmlns="http://www.w3.org/2000/svg"
 width="100.000000pt" height="100.000000pt" viewBox="0 0 100.000000 100.000000"
 preserveAspectRatio="xMidYMid meet">
<metadata>
Created by potrace 1.14, written by Peter Selinger 2001-2017
</metadata>
<g transform="translate(0.000000,100.000000) scale(0.100000,-0.100000)"
fill="#000000" stroke="none">
<path d="M367 776 c-24 -23 -27 -32 -27 -96 0 -62 3 -74 25 -95 13 -14 31 -25
40 -25 12 0 15 -15 15 -80 l0 -80 -110 0 c-133 0 -130 3 -130 -139 l0 -101
320 0 320 0 0 110 c0 133 3 130 -139 130 l-101 0 0 80 c0 65 3 80 15 80 9 0
27 11 40 25 22 21 25 33 25 93 0 61 -3 72 -25 95 -24 23 -32 25 -133 26 -102
2 -110 0 -135 -23z m373 -496 l0 -40 -40 0 -40 0 0 40 0 40 40 0 40 0 0 -40z"/>
</g>
</svg>
